<svg width="241" height="122" viewBox="0 0 241 122" fill="none" xmlns="http://www.w3.org/2000/svg">
<g clip-path="url(#clip0_2006_754)">
<path opacity="0.992157" d="M157 11H157.25H160.75H161V12H160.75H157.25H157V11Z" fill="#FBFAFB" stroke="#FBFAFB"/>
<path opacity="0.992157" d="M112 12H112.25H140.75H141V13H142V14H143V15H143.25H148.75H149V16H150V17H152V18H153V19H152.75H93.25H93V18H94V17H95V16H96V15H96.25H109.75H110V14H111V13H112V12Z" fill="#FBFAFB" stroke="#FBFAFB"/>
<g opacity="0.992157">
<path d="M153 12H155V13H155.25H166.75H167V14H168V15H169V16H170V17H171V19H170V17H169V16H168V15H166V14H165.75H153.25C153 14.0833 152.917 14 153 13.75C153 12.8333 153 12.25 153 12Z" fill="#FBFAFB"/>
<path d="M168 15V14H167V13H166.75H155.25H155V12H153C153 12.25 153 12.8333 153 13.75C152.917 14 153 14.0833 153.25 14H165.75H166V15H168ZM168 15H169V16M168 15V16H169M169 16H170V17M169 16V17H170M170 17H171V19H170V17Z" stroke="#FBFAFB"/>
</g>
<g opacity="0.992157">
<path d="M82 14H83V15H83.25H90.75H91V16H90V17H89V18H88V19H87.75H80.25H80V18H81V17H82V16H83V15H82V14Z" fill="#FBFAFB"/>
<path d="M83 15V14H82V15H83ZM83 15H83.25H90.75H91V16H90V17H89V18H88V19H87.75H80.25H80V18H81V17H82V16H83V15Z" stroke="#FBFAFB"/>
</g>
<path opacity="0.992157" d="M76 15H76.25H78.75H79V16H78V17H77V18H76V19H75.75H73.25H73V17H75V16H76V15Z" fill="#FBFAFB" stroke="#FBFAFB"/>
<path opacity="0.992157" d="M77 19H78V20H77V19Z" fill="#FBFAFB" stroke="#FBFAFB"/>
<path opacity="0.992157" d="M89 21H90V22H89V21Z" fill="#FBFAFB" stroke="#FBFAFB"/>
<path opacity="0.992157" d="M191 21H192V22H191V21Z" fill="#FBFAFB" stroke="#FBFAFB"/>
<path opacity="0.992157" d="M188 23H188.25H223.75H224V24H225V25H226V26H227V27H228V28H229V29H230V30H231V31H232V32H233V33H234V34H235V35H236V36H237V37H236.75H185.25H185V36H184V35H183V34H182V33H181V32.75V30.25V30H182V29H183V28H184V27H185V26H186V25H187V24H188V23ZM203 26V27H204V28H205V30H204V31H203V32H204V33H205V32H207V31H208V30H210V28H208V27C207 27 206.333 27 206 27V26H203.5H203Z" fill="#FBFAFB" stroke="#FBFAFB"/>
<g opacity="0.992157">
<path d="M50 26H51V27H52V28H51V27H50V26Z" fill="#FBFAFB"/>
<path d="M51 27V26H50V27H51ZM51 27H52V28H51V27Z" stroke="#FBFAFB"/>
</g>
<path opacity="0.992157" d="M45 31H46V32H45V31Z" fill="#FBFAFB" stroke="#FBFAFB"/>
<g opacity="0.992157">
<path d="M58 33H58.25H178.75H179V34H180V35H181V36H182V37H183V38H184V39H186V40H186.25H238.75H239V40.25V55.75V56H238V57H237V58H236V60H235V61H233V62H232V63H231V64H230V66H228V67H227V68H226V69H225V70H224V71H223V72H222.75H134.25H134V73H133V74H132V75H131V76H130V77H129V78H130V79H129V78H128V79H127V80H126V81H127V82H126V81H125V82H124V83H123V84H122V85H121V86H120.75H108.25H108V85H107V84H106V83H105V82H104V81H103V80H102V79H101V78H100V77H99V76H98V75H97V74H96V75H95V76H96V77H97V78H98V79H99V80H100V81H101V82H102V83H103V84H104V85H105V85.25V87.75V88H104V89H103V90H102V91H101.75H83.25H83V90H82V89H81V88H80V87H79V86H78.75H62.25H62V85H61V84H60V83H59V82H58V81H57V80H56V79H55V78H54V77H53V76H52V75H50V74H50.25H92.75H93V75H95V74H96V73H95V72H94V71H93.75H48.25H48V70.75V43.25V43H49V42H50V41H51V40H52V39H53V38H54V37H55V36H56V35H57V34H58V33ZM57 58V59H56V61H57V62H51.5H51V62.5V65H51.5H58V65.5V68H58.5H66V67H67V65H62.5H62V64H61V63H62V64H63V62H62V61H62.5H67V59H65V58H61.5H61V59H59V58C58 58 57.3333 58 57 58ZM69 58V59H68V61H70V62H68V64H69V65H68V65.5V68C68 68 68.1667 68 68.5 68H84V65.5V65H78.5C78.1667 65 78 65 78 65V62.5V62H74.5H74V61H75V59H74V58H73V59H71V58C70 58 69.3333 58 69 58ZM87 58V59H85V60H86V61H87V62H86V63H85V64H86V65H86.5H91V65.5V68C91 68 91.1667 68 91.5 68H101V62.5V62H91.5H91V61H92V59H91V58H90V59H88V58H87ZM135 68V68.5V71H135.5H221V70H222V69H221V68H135.5H135Z" fill="#FBFAFB"/>
<path d="M129 78V77H130V76H131V75H132V74H133V73H134V72H134.25H222.75H223V71H224V70H225V69H226V68H227V67H228V66H230V64H231V63H232V62H233V61H235V60H236V58H237V57H238V56H239V55.75V40.25V40H238.75H186.25H186V39H184V38H183V37H182V36H181V35H180V34H179V33H178.75H58.25H58V34H57V35H56V36H55V37H54V38H53V39H52V40H51V41H50V42H49V43H48V43.25V70.75V71H48.25H93.75H94V72H95V73H96V74M129 78H130V79H129V78ZM129 78H128V79H127V80H126V81M126 81H127V82H126V81ZM126 81H125V82H124V83H123V84H122V85H121V86H120.75H108.25H108V85H107V84H106V83H105V82H104V81H103V80H102V79H101V78H100V77H99V76H98V75H97V74H96M96 74V75H95M96 74H95V75M95 75V76H96V77H97V78H98V79H99V80H100V81H101V82H102V83H103V84H104V85H105V85.25V87.75V88H104V89H103V90H102V91H101.75H83.25H83V90H82V89H81V88H80V87H79V86H78.75H62.25H62V85H61V84H60V83H59V82H58V81H57V80H56V79H55V78H54V77H53V76H52V75H50V74H50.25H92.75H93V75H95ZM62 64V65H62.5H67V67H66V68H58.5H58V65.5V65H51.5H51V62.5V62H51.5H57V61H56V59H57V58C57.3333 58 58 58 59 58V59H61V58H61.5H65V59H67V61H62.5H62V62H63V64H62ZM62 64H61V63H62V64ZM69 58V59H68V61H70V62H68V64H69V65H68V65.5V68C68 68 68.1667 68 68.5 68H84V65.5V65H78.5C78.1667 65 78 65 78 65V62.5V62H74.5H74V61H75V59H74V58H73V59H71V58C70 58 69.3333 58 69 58ZM87 58V59H85V60H86V61H87V62H86V63H85V64H86V65H86.5H91V65.5V68C91 68 91.1667 68 91.5 68H101V62.5V62H91.5H91V61H92V59H91V58H90V59H88V58H87ZM135 68V68.5V71H135.5H221V70H222V69H221V68H135.5H135Z" stroke="#FBFAFB"/>
</g>
<path opacity="0.992157" d="M72 61H73V62H72V61Z" fill="#FBFAFB" stroke="#FBFAFB"/>
<path opacity="0.992157" d="M239 65H240V66H239V65Z" fill="#FBFAFB" stroke="#FBFAFB"/>
<path opacity="0.992157" d="M151 75H152V76H151V75Z" fill="#FBFAFB" stroke="#FBFAFB"/>
<path opacity="0.992157" d="M136 76H136.25H138.75H139V77H138V78H137V79H136V80H135V81H134V82H133V83H132.75H130.25H130V81H132V80H133V79H134V78H135V77H136V76Z" fill="#FBFAFB" stroke="#FBFAFB"/>
<g opacity="0.992157">
<path d="M144 76H144.25H147.75H148V77H147V78H146V79H145V80H144V81H143V82H141V83H142V84H141V83H139V81H140V80H141V79H142V78H143V77H144V76Z" fill="#FBFAFB"/>
<path d="M141 83V82H143V81H144V80H145V79H146V78H147V77H148V76H147.75H144.25H144V77H143V78H142V79H141V80H140V81H139V83H141ZM141 83H142V84H141V83Z" stroke="#FBFAFB"/>
</g>
<path opacity="0.992157" d="M153 76H153.25H155.75H156V77H155V78H154V79H153V80H152V81H151V82H150V83H149.75H147.25H147V81H148V80H149V79H150V78H151V77H153V76Z" fill="#FBFAFB" stroke="#FBFAFB"/>
<path opacity="0.992157" d="M161 76H161.25H164.75H165V77H164V78H163V79H162V80H161V81H160V82C159.75 82 159.167 82 158.25 82H158V83H156V81H157V80H158V79H159V78H160V77H161V76Z" fill="#FBFAFB" stroke="#FBFAFB"/>
<path opacity="0.992157" d="M169 76H169.25H172.75H173V77H172V78H171V79H170V80H169V81H168V82H167V83H166V84H165V83H164V81H165V80H166V79H167V78H168V77H169V76Z" fill="#FBFAFB" stroke="#FBFAFB"/>
<path opacity="0.992157" d="M201 77H201.25H204.75H205V79H204V80H202V79H201V77Z" fill="#FBFAFB" stroke="#FBFAFB"/>
<g opacity="0.443137">
<path d="M113 10H114V11H114.25H116.75H117V10H118V11H118.25H121.75H122V10H122.25H124.75H125V11H125.25H134.75H135V10H137V11H139V10H140V11H142V12H143V13H144V14H144.25H149.75H150V15H151V16H152V17H153V18H154V20H153.75H92.25C92 20.0833 91.9167 20 92 19.75V17.25V17H91V18H90V19H88V20H87.75H78.25H78V19H79V18H80V17H81V16H82V15H83V14H83.25H93.75H94V15H95V14H95.25H108.75H109V13H110V12H111V11H113V10ZM112 12V13H111V14H110V15H96.5H96V16H95V17H94V18H93V19H93.5H153V18H152V17H150V16H149V15H143.5H143V14H142V13H141V12H112.5H112ZM83 15V16H82V17H81V18H80V19H80.5H88V18H89V17H90V16H91V15H83.5H83ZM93 15V16H94V15H93ZM92 16V17H93V16H92Z" fill="#1D9088"/>
<path d="M152 17V16H151V15H150V14H149.75H144.25H144V13H143V12H142V11H140V10H139V11H137V10H135V11H134.75H125.25H125V10H124.75H122.25H122V11H121.75H118.25H118V10H117V11H116.75H114.25H114V10H113V11H111V12H110V13H109V14H108.75H95.25H95V15H94M152 17H153V18M152 17V18H153M152 17H150V16H149V15H143.5H143V14H142V13H141V12H112.5H112V13H111V14H110V15H96.5H96V16H95V17H94V18H93V19H93.5H153V18M153 18H154V20H153.75H92.25C92 20.0833 91.9167 20 92 19.75V17.25V17M92 17H91V18H90V19H88M92 17V16H93M92 17H93V16M88 19V20H87.75H78.25H78V19H79V18H80M88 19H80.5H80V18M88 19V18H89V17H90V16H91V15H83.5H83M80 18V17H81M80 18H81V17M81 17V16H82M81 17H82V16M82 16V15H83M82 16H83V15M83 15V14H83.25H93.75H94V15M94 15V16H93M94 15H93V16" stroke="#1D9088"/>
</g>
<g opacity="0.443137">
<path d="M152 11H152.25H155.75H156V12H156.25H161.75H162V11H162.25H164.75H165V12H167V13H168V14H169V15H170V16H171V17H172V19H171V17H170V19H169V18H168V17H167V16H166V15H164V14C164.25 14 164.833 14 165.75 14H166V15H168V14H167V13H166.75H155.25H155V12H153V14H153.25H155.75H156V15H154V16H153V15H152V14.75V11.25V11ZM168 15V16H169V15H168ZM169 16V17H170V16H169Z" fill="#1D9088"/>
<path d="M167 13V12H165V11H164.75H162.25H162V12H161.75H156.25H156V11H155.75H152.25H152V11.25V14.75V15H153V16H154V15H156V14H155.75H153.25H153V12H155V13H155.25H166.75H167ZM167 13H168V14M167 13V14H168M168 14H169V15M168 14V15M169 15H170V16M169 15V16M169 15H168M170 16H171V17M170 16V17M170 16H169M171 17H172V19H171V17ZM171 17H170M170 17V19H169V18H168V17H167V16H166V15M170 17H169V16M166 15H164V14C164.25 14 164.833 14 165.75 14H166V15ZM166 15H168M168 15V16H169" stroke="#1D9088"/>
</g>
<g opacity="0.443137">
<path d="M79 13H80V14H81V15H80V16H79V17H78V18H77V19H76V18H77V17H78V16H79V15H78.75H76.25H76V16H75V17H73V19H75V20H74.75H71.25H71V18H72V17H73V16H74V15H75V14H75.25H78.75H79V13Z" fill="#1D9088"/>
<path d="M79 16H80V15H81V14H80V13H79V14H78.75H75.25H75V15H74V16H73V17M79 16V17H78M79 16H78V17M79 16V15H78.75H76.25H76V16H75V17H73M78 17V18H77M78 17H77V18M77 18V19H76V18H77ZM73 17V19H75V20H74.75H71.25H71V18H72V17H73Z" stroke="#1D9088"/>
</g>
<path opacity="0.443137" d="M160 14H161V15H160V14Z" fill="#1D9088" stroke="#1D9088"/>
<path opacity="0.443137" d="M162 14H163V15H162V14Z" fill="#1D9088" stroke="#1D9088"/>
<g opacity="0.443137">
<path d="M55 21H56V22H58V21H59V22H61V21H61.25H64.75H65V22H65.25H67.75H68V21H69V22H71V21H72V22H73V21H74V22H75V21H76V22H78V21H78.25H80.75H81V22H83V21H83.25H87.75H88V22H88.25H90.75H91V21H92V22H92.25H97.75H98V21H100V22H102V21H104V22H104.25H115.75H116V21H118V22H118.25H126.75H127V21H128V22H128.25H131.75H132V21H133V22H133.25H138.75H139V21H139.25H142.75H143V22H143.25H146.75H147V21H148V22H150V21H151V22H151.25H153.75H154V24H153.75H54.25H54V25H53V26H52V27H51V28H50V29H49V30H48V31H47V32H46V33H45V34H43V32H44V31H45V30H46V29H47V28H48V27H49V26H50V25H51V24H52V23H53V22H55V21ZM50 26V27H51V26H50ZM45 31V32H46V31H45Z" fill="#1D9088"/>
<path d="M51 27H52V26H53V25H54V24H54.25H153.75H154V22H153.75H151.25H151V21H150V22H148V21H147V22H146.75H143.25H143V21H142.75H139.25H139V22H138.75H133.25H133V21H132V22H131.75H128.25H128V21H127V22H126.75H118.25H118V21H116V22H115.75H104.25H104V21H102V22H100V21H98V22H97.75H92.25H92V21H91V22H90.75H88.25H88V21H87.75H83.25H83V22H81V21H80.75H78.25H78V22H76V21H75V22H74V21H73V22H72V21H71V22H69V21H68V22H67.75H65.25H65V21H64.75H61.25H61V22H59V21H58V22H56V21H55V22H53V23H52V24H51V25H50V26M51 27V28H50V29H49V30H48V31H47V32H46M51 27H50V26M51 27V26H50M46 32V33H45V34H43V32H44V31H45M46 32H45V31M46 32V31H45M45 31V30H46V29H47V28H48V27H49V26H50" stroke="#1D9088"/>
</g>
<g opacity="0.443137">
<path d="M190 21H191V22H191.25H223.75H224V23H225V24H226V25H227V26H228V27H229V28H230V29H231V30H232V31H233V32H234V33H235V34H236V35H237V36H238V37H239V38H240V38.25V56.75V57H239V58H238V59H237V60H236V61H235V62H234V63H233V64H232V65H231V66H230V67H229V68H228V69H227V70H226V71H225V72H224V73H223.75H134.25C134 72.9167 133.917 73 134 73.25C134 74.1667 134 74.75 134 75H132V77H130V78H129V80H128V81H126V82H125V83H124V84H123V86H122V87H121.75H107.25H107V88H106V89H105V90H104V91H103V92H102.75H82.25H82V91H81V90H80V89H79V88H78V87H77.75H61.25H61V86H60V85H59V84H58V83H57V82H56V81H55V80H54V79H53V78H52V77H51V76H50V75H49V73H48V72H47V71.75V43.25V43H48V42H49V41H50V40H51V39H52V37H54V35H55V34H57V33H58V32H58.25H178.75H179V31H180V30H181V29H182V28H183V27H184V26H185V25H186V24H187V23H188V22H190V21ZM188 23V24H187V25H186V26H185V27H184V28H183V29H182V30H181V30.5V33H182V34H183V35H184V36H185V37H185.5H237V36H236V35H235V34H234V33H233V32H232V31H231V30H230V29H229V28H228V27H227V26H226V25H225V24H224V23H188.5H188ZM58 33V34H57V35H56V36H55V37H54V38H53V39H52V40H51V41H50V42H49V43H48V43.5V71H48.5H94V72H95V73H96V74H97V75H98V76H99V77H100V78H101V79H102V80H103V81H104V82H105V83H106V84H107V85H108V86H108.5H121V85H122V84H123V83H124V82H125V81H126V80H127V79H128V78H129V77H130V76H131V75H132V74H133V73H134V72H134.5H223V71H224V70H225V69H226V68H227V67H228V66H230V64H231V63H232V62H233V61H235V60H236V58H237V57H238V56H239V40.5V40H186.5H186V39H184V38H183V37H182V36H181V35H180V34H179V33H58.5H58ZM182 35V36H183V35H182ZM183 36V37H184V36H183ZM50 74V75H52V76H53V77H54V78H55V79H56V80H57V81H58V82H59V83H60V84H61V85H62V86H62.5H79V87H80V88H81V89H82V90H83V91H83.5H102V90H103V89H104V88H105V85.5V85H104V84H103V83H102V82H101V81H100V80H99V79H98V78H97V77H96V76H95V75H93V74H50.5H50ZM95 74V75H96V74H95Z" fill="#1D9088"/>
<path d="M224 23V22H223.75H191.25H191V21H190V22H188V23M224 23H225V24M224 23V24H225M224 23H188.5H188M225 24H226V25M225 24V25H226M226 25H227V26M226 25V26H227M227 26H228V27M227 26V27H228M228 27H229V28M228 27V28H229M229 28H230V29M229 28V29H230M230 29H231V30M230 29V30H231M231 30H232V31M231 30V31H232M232 31H233V32M232 31V32H233M233 32H234V33M233 32V33H234M234 33H235V34M234 33V34H235M235 34H236V35M235 34V35H236M236 35H237V36M236 35V36H237M237 36H238V37H239V38H240V38.25V56.75V57H239V58H238V59H237V60H236M237 36V37H185.5H185V36H184M236 60V61H235M236 60H235V61M236 60V58H237V57H238V56H239V40.5V40H186.5H186V39H184V38H183V37M235 61V62H234V63H233V64H232V65H231V66H230M235 61H233V62H232V63H231V64H230V66M230 66V67H229V68H228V69H227V70H226V71H225V72H224V73H223.75H134.25C134 72.9167 133.917 73 134 73.25C134 74.1667 134 74.75 134 75H132M230 66H228V67H227V68H226V69H225V70H224V71H223V72H134.5H134V73H133V74H132V75M132 75V77H130M132 75H131V76H130V77M130 77V78H129M130 77H129V78M129 78V80H128V81H126M129 78H128V79H127V80H126V81M126 81V82H125M126 81H125V82M125 82V83H124M125 82H124V83M124 83V84H123M124 83H123V84M123 84V86H122V87H121.75H107.25H107V88H106V89H105V90H104V91H103V92H102.75H82.25H82V91H81V90H80V89H79V88H78V87H77.75H61.25H61V86H60V85H59V84H58V83H57V82H56V81H55V80H54V79H53V78H52V77H51V76H50V75M123 84H122V85H121V86H108.5H108V85H107V84H106V83H105V82H104V81H103V80H102V79H101V78H100V77H99V76H98V75H97V74H96M50 75H49V73H48V72H47V71.75V43.25V43H48M50 75V74H50.5H93V75H95M50 75H52V76H53V77H54V78H55V79H56V80H57V81H58V82H59V83H60V84H61V85H62V86H62.5H79V87H80V88H81V89H82V90H83V91H83.5H102V90H103V89H104V88H105V85.5V85H104V84H103V83H102V82H101V81H100V80H99V79H98V78H97V77H96V76H95V75M48 43V42H49M48 43H49V42M48 43V43.5V71H48.5H94V72H95V73H96V74M49 42V41H50M49 42H50V41M50 41V40H51M50 41H51V40M51 40V39H52M51 40H52V39M52 39V37H54M52 39H53V38H54V37M54 37V35H55V34H57M54 37H55V36H56V35H57V34M57 34V33H58M57 34H58V33M58 33V32H58.25H178.75H179V31H180V30H181M58 33H58.5H179V34H180V35H181V36H182M181 30V29H182M181 30H182V29M181 30V30.5V33H182V34H183V35M182 29V28H183M182 29H183V28M183 28V27H184M183 28H184V27M184 27V26H185M184 27H185V26M185 26V25H186M185 26H186V25M186 25V24H187M186 25H187V24M187 24V23H188M187 24H188V23M183 35H184V36M183 35V36M183 35H182V36M184 36V37H183M184 36H183M96 74V75H95M96 74H95V75M183 37H182V36M183 37V36M182 36H183" stroke="#1D9088"/>
</g>
<g opacity="0.443137">
<path d="M203 26H203.25H205.75H206V27C206.25 27 206.833 27 207.75 27H208V28H210V30H208V31H207V32H205V33H204V32H203V31H204V30H205V28H204V27H203V26ZM205 27V28H206V27H205ZM206 28V30H205V31H207V30H208V28H206Z" fill="#1D9088"/>
<path d="M206 27V26H205.75H203.25H203V27H204V28H205M206 27C206.25 27 206.833 27 207.75 27H208V28M206 27V28M206 27H205V28M208 28H210V30H208M208 28V30M208 28H206M208 30V31H207M208 30H207V31M207 31V32H205V33H204V32H203V31H204V30H205M207 31H205V30M205 30V28M205 30H206V28M205 28H206" stroke="#1D9088"/>
</g>
<g opacity="0.443137">
<path d="M57 58H59V59H57V60H57.25H64.75H65V59H64.75H61.25H61V58H61.25H64.75H65V59H67V61H66.75H62.25H62V62H63V64H62V65H62.25H66.75H67V67H66V68H65.75H58.25H58V67.75V65.25V65H57.75H51.25H51V64.75V62.25V62H51.25H56.75H57V61H56V59H57V58ZM52 63V64H52.5H62V63H52.5H52ZM59 66V67H59.5H66V66H59.5H59Z" fill="#1D9088"/>
<path d="M57 59H59V58H57V59ZM57 59V60H57.25H64.75H65V59M57 59H56V61H57V62H56.75H51.25H51V62.25V64.75V65H51.25H57.75H58V65.25V67.75V68H58.25H65.75H66V67M65 59H64.75H61.25H61V58H61.25H64.75H65V59ZM65 59H67V61H66.75H62.25H62V62H63V64H62M62 64V65H62.25H66.75H67V67H66M62 64H52.5H52V63H52.5H62V64ZM66 67H59.5H59V66H59.5H66V67Z" stroke="#1D9088"/>
</g>
<path opacity="0.443137" d="M69 58H71V59H70V60H70.25H72.75H73V58H74V59H75V61H74V62H74.25H77.75H78V62.25V64.75C77.9167 65 78 65.0833 78.25 65H83.75H84V65.25V67.75V68H83.75H68.25C68 68.0833 67.9167 68 68 67.75V65.25V65H69V64H68V62H70V61H68V59H69V58ZM72 61V62H73V61H72ZM70 63V64H70.5H77V63H70.5H70ZM69 66V67H69.5H83V66H69.5H69Z" fill="#1D9088" stroke="#1D9088"/>
<g opacity="0.443137">
<path d="M87 58H88V59H87V60H87.25H90.75H91V59H90V58H91V59H92V61H91V62H91.25H100.75H101V62.25V67.75V68H100.75H91.25C91 68.0833 90.9167 68 91 67.75V65.25V65H90.75H86.25H86V64H85V63H86V62H87V61H86V60H85V59H87V58ZM87 63V64H87.5H100V63H87.5H87ZM92 66V67H92.5H100V66H92.5H92Z" fill="#1D9088"/>
<path d="M87 59H88V58H87V59ZM87 59V60H87.25H90.75H91V59M87 59H85V60H86V61H87V62H86V63H85V64H86V65H86.25H90.75H91V65.25V67.75C90.9167 68 91 68.0833 91.25 68H100.75H101V67.75V62.25V62H100.75H91.25H91V61H92V59H91M91 59H90V58H91V59ZM87 63V64H87.5H100V63H87.5H87ZM92 66V67H92.5H100V66H92.5H92Z" stroke="#1D9088"/>
</g>
<g opacity="0.443137">
<path d="M240 63H241V63.25V65.75V66H240V67H239V68H238V69H237V70H236V71H235V72H234V73H233V74H232V75H231V76H230V77H228V79H226V80H225.75H205.25H205V81H204.75H201.25H201V80H200V79.75V76.25V76H200.25H203.75H204V77H203.75H201.25H201V79H202V80H204V79H205C205 78.75 205 78.1667 205 77.25C204.917 77 205 76.9167 205.25 77H225.75H226V76H227V75H228V74H229V73H230V72H231V71H233V70H234V68H235V67H236V66H237V65H239V64H240V63ZM239 65V66H240V65H239Z" fill="#1D9088"/>
<path d="M240 66H241V65.75V63.25V63H240V64H239V65M240 66V67H239V68H238V69H237V70H236V71H235V72H234V73H233V74H232V75H231V76H230V77H228V79H226V80H225.75H205.25H205V81H204.75H201.25H201V80H200V79.75V76.25V76H200.25H203.75H204V77H203.75H201.25H201V79H202V80H204V79H205C205 78.75 205 78.1667 205 77.25C204.917 77 205 76.9167 205.25 77H225.75H226V76H227V75H228V74H229V73H230V72H231V71H233V70H234V68H235V67H236V66H237V65H239M240 66H239V65M240 66V65H239" stroke="#1D9088"/>
</g>
<path opacity="0.443137" d="M135 68H135.25H220.75H221V69H222V70H221V71H220.75H135.25H135V70.75V68.25V68Z" fill="#1D9088" stroke="#1D9088"/>
<g opacity="0.443137">
<path d="M135 75H135.25H140.75H141V77H140V78H139V79H138V80H137V81H136V82H135V83H133V82H134V81H135V80H136V79H137V78H138V77H139V76H138.75H136.25H136V77H135V78H134V79H133V80H132V81H130V83H128V82H129V81H130V80H131V79H132V78H133V77H134V76H135V75Z" fill="#1D9088"/>
<path d="M130 81H132V80H133V79H134V78H135V77H136V76H136.25H138.75H139V77H138V78H137V79H136V80H135V81H134V82H133V83H135V82H136V81H137V80H138V79H139V78H140V77H141V75H140.75H135.25H135V76H134V77H133V78H132V79H131V80H130V81ZM130 81V83H128V82H129V81H130Z" stroke="#1D9088"/>
</g>
<g opacity="0.443137">
<path d="M143 75H143.25H148.75H149V77H148V78H147V79H146V80H145V81H144V82H143V83H141V82H143V81H144V80H145V79H146V78H147V77H148V76H147.75H144.25H144V77H143V78H142V79H141V80H140V81H139V81.25V83.75V84H137V82H138V81H139V80H140V79H141V78H142V77H143V75Z" fill="#1D9088"/>
<path d="M148 77H149V75H148.75H143.25H143V77M148 77V78H147M148 77H147V78M148 77V76H147.75H144.25H144V77H143M147 78V79H146M147 78H146V79M146 79V80H145M146 79H145V80M145 80V81H144M145 80H144V81M144 81V82H143M144 81H143V82M143 82V83H141V82H143ZM143 77V78H142M143 77H142V78M142 78V79H141M142 78H141V79M141 79V80H140M141 79H140V80M140 80V81H139M140 80H139V81M139 81V81.25V83.75V84H137V82H138V81H139Z" stroke="#1D9088"/>
</g>
<g opacity="0.443137">
<path d="M152 75H152.25H157.75H158V77H157V78H156V79H158V78H159V77H160V75H160.25H165.75H166V77H165V78H164V79H163V80H162V81H161V82H160V83H159V84H158V82H160V81H161V80H162V79H163V78H164V77H165V76H164.75H161.25H161V77H160V78H159V79H158V80H157V81H156V81.25V83.75V84H154C154 83.75 154 83.1667 154 82.25V82H155V80H154V81H153V82H152V83H150V84H149V83H150V82H151V81H152V80H153V79H154V78H155V77H156V76H155.75H153.25H153V77H151V78H150V79H149V80H148V81H147V81.25V83.75V84H146V83H145V82H146V81H147V80H148V79H149V78H150V77H151V76H152V75ZM155 79V80H156V79H155Z" fill="#1D9088"/>
<path d="M156 79V78H157V77H158V75H157.75H152.25H152V76H151V77M156 79H158M156 79V80H155M156 79H155V80M158 79V78H159M158 79H159V78M158 79V80H157V81H156V81.25V83.75V84H154C154 83.75 154 83.1667 154 82.25V82H155V80M159 78V77H160M159 78H160V77M160 77V75H160.25H165.75H166V77H165M160 77H161V76H161.25H164.75H165V77M165 77V78H164M165 77H164V78M164 78V79H163M164 78H163V79M163 79V80H162M163 79H162V80M162 80V81H161M162 80H161V81M161 81V82H160M161 81H160V82M160 82V83H159V84H158V82H160ZM155 80H154V81H153V82H152V83H150M150 83V84H149V83H150ZM150 83V82H151V81H152V80H153V79H154V78H155V77H156V76H155.75H153.25H153V77H151M151 77V78H150M151 77H150V78M150 78V79H149M150 78H149V79M149 79V80H148M149 79H148V80M148 80V81H147M148 80H147V81M147 81V81.25V83.75V84H146V83H145V82H146V81H147Z" stroke="#1D9088"/>
</g>
<g opacity="0.443137">
<path d="M168 75H168.25H173.75H174V76H175V77H173V78H172V79H171V80H170V81H169V82H168V83H167V82H168V81H169V80H170V79H171V78H172V77H173V76H172.75H169.25H169V77H168V78H167V79H166V80H165V81H164V83H162V82H163V81H164V80H165V79H166V78H167V77H168V75Z" fill="#1D9088"/>
<path d="M173 77H175V76H174V75H173.75H168.25H168V77M173 77V78H172M173 77H172V78M173 77V76H172.75H169.25H169V77H168M172 78V79H171M172 78H171V79M171 79V80H170M171 79H170V80M170 80V81H169M170 80H169V81M169 81V82H168M169 81H168V82M168 82V83H167V82H168ZM168 77V78H167M168 77H167V78M167 78V79H166M167 78H166V79M166 79V80H165M166 79H165V80M165 80V81H164M165 80H164V81M164 81V83H162V82H163V81H164Z" stroke="#1D9088"/>
</g>
</g>
<defs>
<clipPath id="clip0_2006_754">
<rect width="241" height="122" fill="white"/>
</clipPath>
</defs>
</svg>
